# xmcd
#
# Track frame offsets: 
#        150
#        13155
#        24725
#        34157
#        45455
#        56965
#        68335
#        80615
#        93762
#        105320
#        117415
#        128977
#        140837
#        152575
#        162822
#        174620
#        185860
#        195412
#        203585
#        213035
#        222772
#        231950
#        243370
#        256342
#        269422
#
# Disc length: 3711 seconds
#
# Revision: 3
# Processed by: cddbd v1.5.2PL0 Copyright (c) Steve Scherf et al.
# Submitted via: ExactAudioCopy v1.0b1
#
DISCID=5e0e7d19
DTITLE=Hylo Brown and The Timberliners - 1954-1960 [CD2]
DYEAR=1992
DGENRE=Bluegrass
TTITLE0=Lost To A Stranger
TTITLE1=Lovesick And Sorrow
TTITLE2=Get Lost, You Wolf!
TTITLE3=A One Sided Love Affair
TTITLE4=The Only One
TTITLE5=The Prisoner's Song
TTITLE6=Nobody's Darlin' But Mine
TTITLE7=One Way Train
TTITLE8=Foolish Pride
TTITLE9=John Henry
TTITLE10=There's More Pretty Girls Than One
TTITLE11=Stone Wall (Around Your Heart)
TTITLE12=The Shuffle Of My Feet
TTITLE13=Your Crazy Heart
TTITLE14=You Can't Relive The Past
TTITLE15=I've Waited As Long As I Can
TTITLE16=It's All Over Now (But The Crying)
TTITLE17=Thunder Clouds Of Love
TTITLE18=Just Any Old Love
TTITLE19=Darlin' How Can You Forget So Soon
TTITLE20=Sweethearts Or Strangers (w. the Jordanaires take 9)
TTITLE21=Test Of Love (w. the Jordanaires)
TTITLE22=Dark As A Dungeon (w. the Jordanaires)
TTITLE23=Lost To A Stranger (w. the Jordanaires)
TTITLE24=Sweethearts Or Strangers (w. the Jordanaires take 11)
EXTD=null YEAR: 1992
EXTT0=1955
EXTT1=1955
EXTT2=1955
EXTT3=1955
EXTT4=1956
EXTT5=1956
EXTT6=1957
EXTT7=1957
EXTT8=1957
EXTT9=1958
EXTT10=1958
EXTT11=1957
EXTT12=1959
EXTT13=1959
EXTT14=1959
EXTT15=1960
EXTT16=1992
EXTT17=1959
EXTT18=1960
EXTT19=1992
EXTT20=& The Jordanaires (Take 9) - 1992
EXTT21=& The Jordanaires - 1992
EXTT22=& The Jordanaires - 1992
EXTT23=& The Jordanaires - 1992
EXTT24=& The Jordanaires (Take 11) - 1992
PLAYORDER=
